<svg xmlns="http://www.w3.org/2000/svg" xmlns:xlink="http://www.w3.org/1999/xlink" width="443.356" height="812" viewBox="0 0 443.356 812">
  <defs>
    <clipPath id="clip-path">
      <rect width="443.356" height="812" fill="none"/>
    </clipPath>
  </defs>
  <g id="Panel_BG" data-name="Panel BG" clip-path="url(#clip-path)">
    <g transform="translate(-91.822 -0.178)">
      <path id="PopUp_BG" data-name="PopUp BG" d="M3691,3509.357v-433.8a21.836,21.836,0,0,1-3.55.277c-13.111,0-13.111-9.837-26.223-9.837s-13.111,9.837-26.222,9.837c-13.071,0-13.114-9.775-26.105-9.834l-.058,0h-.058c-13.1,0-13.112,9.822-26.194,9.836-13.083-.014-13.093-9.836-26.195-9.836h-.055c-13.1,0-13.111,9.822-26.194,9.836-13.083-.014-13.093-9.836-26.194-9.836h-.055c-13.1,0-13.112,9.822-26.194,9.836-13.083-.014-13.093-9.836-26.195-9.836h-.052c-13.1,0-13.111,9.823-26.194,9.836-13.084-.013-13.094-9.836-26.2-9.836s-13.111,9.837-26.221,9.837-13.11-9.837-26.22-9.837-13.11,9.837-26.219,9.837a14.9,14.9,0,0,1-4.408-.7v434.221Z" transform="translate(-2974.178 3691.178) rotate(-90)" fill="#E8E6E3"/>
    </g>
    <g transform="translate(-91.822 365.822)">
      <path id="PopUp_BG-2" data-name="PopUp BG" d="M3691,3509.357v-433.8a21.836,21.836,0,0,1-3.55.277c-13.111,0-13.111-9.837-26.223-9.837s-13.111,9.837-26.222,9.837c-13.071,0-13.114-9.775-26.105-9.834l-.058,0h-.058c-13.1,0-13.112,9.822-26.194,9.836-13.083-.014-13.093-9.836-26.195-9.836h-.055c-13.1,0-13.111,9.822-26.194,9.836-13.083-.014-13.093-9.836-26.194-9.836h-.055c-13.1,0-13.112,9.822-26.194,9.836-13.083-.014-13.093-9.836-26.195-9.836h-.052c-13.1,0-13.111,9.823-26.194,9.836-13.084-.013-13.094-9.836-26.2-9.836s-13.111,9.837-26.221,9.837-13.11-9.837-26.22-9.837-13.11,9.837-26.219,9.837a14.9,14.9,0,0,1-4.408-.7v434.221Z" transform="translate(-2974.178 3691.178) rotate(-90)" fill="#E8E6E3"/>
    </g>
    <g transform="translate(-91.822 731.822)">
      <path id="PopUp_BG-3" data-name="PopUp BG" d="M3691,3509.357v-433.8a21.836,21.836,0,0,1-3.55.277c-13.111,0-13.111-9.837-26.223-9.837s-13.111,9.837-26.222,9.837c-13.071,0-13.114-9.775-26.105-9.834l-.058,0h-.058c-13.1,0-13.112,9.822-26.194,9.836-13.083-.014-13.093-9.836-26.195-9.836h-.055c-13.1,0-13.111,9.822-26.194,9.836-13.083-.014-13.093-9.836-26.194-9.836h-.055c-13.1,0-13.112,9.822-26.194,9.836-13.083-.014-13.093-9.836-26.195-9.836h-.052c-13.1,0-13.111,9.823-26.194,9.836-13.084-.013-13.094-9.836-26.2-9.836s-13.111,9.837-26.221,9.837-13.11-9.837-26.22-9.837-13.11,9.837-26.219,9.837a14.9,14.9,0,0,1-4.408-.7v434.221Z" transform="translate(-2974.178 3691.178) rotate(-90)" fill="#E8E6E3"/>
    </g>
  </g>
</svg>
